<?xml version="1.0" standalone="no"?><!DOCTYPE svg PUBLIC "-//W3C//DTD SVG 1.1//EN" "http://www.w3.org/Graphics/SVG/1.1/DTD/svg11.dtd"><svg t="1781055504841" class="icon" viewBox="0 0 1024 1024" version="1.1" xmlns="http://www.w3.org/2000/svg" p-id="43784" xmlns:xlink="http://www.w3.org/1999/xlink" width="200" height="200"><path d="M973.8 396l-25.6 126.8c-3.8 18.6-17.4 33.8-35.6 39.2-18.2 5.4-37.6 0.4-51-13l-65.2-65.8-66.8 67.4-42.4-42.4 87.8-88.8c5.6-5.6 13.4-8.8 21.4-8.8s15.6 3.2 21.4 8.8l74.8 75.6 19.2-95.2-241.4-244-56.8 57.4 80.6 81.4c11.6 11.6 11.6 30.6 0 42.2l-88.8 89.6-42.4-42.4 67.6-68.4-80.6-81.2c-11.6-11.6-11.6-30.6 0-42.2l99-100c5.6-5.6 13.4-8.8 21.4-8.8s15.6 3.2 21.4 8.8l274 276.8c6.8 7 9.8 17.2 8 27z m-508 335.8l-132.4 133.8-81.4-82.2 132-133.4-42.4-42.4-153 154.6c-11.6 11.6-11.6 30.6 0 42.2l123.6 124.8c5.6 5.6 13.4 8.8 21.4 8.8 8 0 15.6-3.2 21.4-8.8l153.4-155-42.6-42.4z m356 193.4l3.6-3 53.8-53.8c1-1 2.2-2.2 3-3.6 23.4-32 20-75.8-8-103.8L505 392.2l-14.6-176c-2.2-26-18.2-48.8-41.8-59.6l-132.2-61c-11.4-5.2-24.8-2.8-33.8 6l-77.2 77.2c-11.8 11.8-11.8 30.8 0 42.4l75.2 75.2-27.2 27.6-75.2-75.2c-11.8-11.8-30.8-11.8-42.4 0L58.4 326c-8.8 8.8-11.2 22.4-6 33.8L113.4 492c10.8 23.6 33.8 39.6 59.6 41.8l176 14.6 368.8 368.8c15.6 15.6 36 23.6 56.6 23.6 16.6 0 33-5.2 47.4-15.6zM157 312.4l75.2 75.2c11.8 11.8 30.8 11.8 42.4 0l69.8-69.8c11.8-11.8 11.8-30.8 0-42.4l-75.2-75.2 41.2-41.2 113.2 52.2c4 1.8 6.8 5.8 7.2 10.2l15.4 187c0.6 7 3.6 13.8 8.6 18.8l376.6 376.6c6.6 6.6 7.8 16.6 3 24.6L784.8 878c-7.8 4.8-18 3.6-24.6-3L383.6 498.2c-5-5-11.6-8-18.8-8.6L178 474c-4.4-0.4-8.2-3-10.2-7.2l-52.2-113.2 41.4-41.2z" fill="#040000" p-id="43785"></path></svg>